# xmcd
# Copyright (C) 1995-1998 Ti Kan
#
# Track frame offsets:
#       150
#       11114
#       25116
#       35814
#       52037
#       64862
#
# Disc length: 1052 seconds
#
# Revision: 0
# Processed by: cddbd v1.5.2PL0 Copyright (c) Steve Scherf et al.
# Submitted via: CD-Transfer v1.0
#
DISCID=4f041a06
DTITLE=ANDREA UND HANS - 
DYEAR=07
DGENRE=
TTITLE0=ST. JAKOB IST MEIN DAHEIM
TTITLE1=ZUM GEBURTSTAG
TTITLE2=G´SUACHT U. G´FUNDN
TTITLE3=EIN BIßCHEN LIEBE
TTITLE4=ICH DANKE DIR HEUTE DAFÜR
TTITLE5=BEI DIR SEIN
EXTD=
EXTT0=
EXTT1=
EXTT2=
EXTT3=
EXTT4=
EXTT5=
PLAYORDER=
